<mxfile host="app.diagrams.net" modified="2023-04-12T07:54:03.492Z" agent="Mozilla/5.0 (X11; Linux x86_64; rv:102.0) Gecko/20100101 Firefox/102.0" version="21.1.6" etag="evfPbYa09rDKL9ST0pWX" type="github">
  <diagram name="Page-1" id="uFc3wt5DRvpmi0hu2D3P">
    <mxGraphModel>
      <root>
        <mxCell id="0" />
        <mxCell id="1" parent="0" />
      </root>
    </mxGraphModel>
  </diagram>
</mxfile>
